ISO-10303-21;
HEADER;
/* Generated by software containing ST-Developer
 * from STEP Tools, Inc. (www.steptools.com) 
 */

FILE_DESCRIPTION(
/* description */ (''),
/* implementation_level */ '2;1');

FILE_NAME(
/* name */ 'Simple flight controller case.step',
/* time_stamp */ '2026-02-18T10:05:16+08:00',
/* author */ (''),
/* organization */ (''),
/* preprocessor_version */ 'ST-DEVELOPER v20.1',
/* originating_system */ 'Autodesk Translation Framework v14.24.0.0',
/* authorisation */ '');

FILE_SCHEMA (('AUTOMOTIVE_DESIGN { 1 0 10303 214 3 1 1 }'));
ENDSEC;

DATA;
#10=MECHANICAL_DESIGN_GEOMETRIC_PRESENTATION_REPRESENTATION('',(#13),#1080);
#11=SHAPE_REPRESENTATION_RELATIONSHIP('SRR','None',#1087,#12);
#12=ADVANCED_BREP_SHAPE_REPRESENTATION('',(#14),#1079);
#13=STYLED_ITEM('',(#1096),#14);
#14=MANIFOLD_SOLID_BREP('Body1',#672);
#15=CYLINDRICAL_SURFACE('',#721,36.);
#16=CIRCLE('',#714,36.);
#17=CIRCLE('',#722,36.);
#18=FACE_BOUND('',#64,.T.);
#19=FACE_OUTER_BOUND('',#55,.T.);
#20=FACE_OUTER_BOUND('',#56,.T.);
#21=FACE_OUTER_BOUND('',#57,.T.);
#22=FACE_OUTER_BOUND('',#58,.T.);
#23=FACE_OUTER_BOUND('',#59,.T.);
#24=FACE_OUTER_BOUND('',#60,.T.);
#25=FACE_OUTER_BOUND('',#61,.T.);
#26=FACE_OUTER_BOUND('',#62,.T.);
#27=FACE_OUTER_BOUND('',#63,.T.);
#28=FACE_OUTER_BOUND('',#65,.T.);
#29=FACE_OUTER_BOUND('',#66,.T.);
#30=FACE_OUTER_BOUND('',#67,.T.);
#31=FACE_OUTER_BOUND('',#68,.T.);
#32=FACE_OUTER_BOUND('',#69,.T.);
#33=FACE_OUTER_BOUND('',#70,.T.);
#34=FACE_OUTER_BOUND('',#71,.T.);
#35=FACE_OUTER_BOUND('',#72,.T.);
#36=FACE_OUTER_BOUND('',#73,.T.);
#37=FACE_OUTER_BOUND('',#74,.T.);
#38=FACE_OUTER_BOUND('',#75,.T.);
#39=FACE_OUTER_BOUND('',#76,.T.);
#40=FACE_OUTER_BOUND('',#77,.T.);
#41=FACE_OUTER_BOUND('',#78,.T.);
#42=FACE_OUTER_BOUND('',#79,.T.);
#43=FACE_OUTER_BOUND('',#80,.T.);
#44=FACE_OUTER_BOUND('',#81,.T.);
#45=FACE_OUTER_BOUND('',#82,.T.);
#46=FACE_OUTER_BOUND('',#83,.T.);
#47=FACE_OUTER_BOUND('',#84,.T.);
#48=FACE_OUTER_BOUND('',#85,.T.);
#49=FACE_OUTER_BOUND('',#86,.T.);
#50=FACE_OUTER_BOUND('',#87,.T.);
#51=FACE_OUTER_BOUND('',#88,.T.);
#52=FACE_OUTER_BOUND('',#89,.T.);
#53=FACE_OUTER_BOUND('',#90,.T.);
#54=FACE_OUTER_BOUND('',#91,.T.);
#55=EDGE_LOOP('',(#419,#420,#421,#422));
#56=EDGE_LOOP('',(#423,#424,#425,#426));
#57=EDGE_LOOP('',(#427,#428,#429,#430));
#58=EDGE_LOOP('',(#431,#432,#433,#434));
#59=EDGE_LOOP('',(#435,#436,#437,#438));
#60=EDGE_LOOP('',(#439,#440,#441,#442,#443,#444,#445));
#61=EDGE_LOOP('',(#446,#447,#448,#449));
#62=EDGE_LOOP('',(#450,#451,#452,#453,#454,#455,#456));
#63=EDGE_LOOP('',(#457,#458,#459,#460));
#64=EDGE_LOOP('',(#461,#462,#463,#464));
#65=EDGE_LOOP('',(#465,#466,#467,#468));
#66=EDGE_LOOP('',(#469,#470,#471,#472));
#67=EDGE_LOOP('',(#473,#474,#475,#476));
#68=EDGE_LOOP('',(#477,#478,#479,#480));
#69=EDGE_LOOP('',(#481,#482,#483,#484));
#70=EDGE_LOOP('',(#485,#486,#487,#488));
#71=EDGE_LOOP('',(#489,#490,#491,#492));
#72=EDGE_LOOP('',(#493,#494,#495,#496));
#73=EDGE_LOOP('',(#497,#498,#499,#500));
#74=EDGE_LOOP('',(#501,#502,#503,#504));
#75=EDGE_LOOP('',(#505,#506,#507,#508,#509,#510,#511,#512,#513,#514,#515));
#76=EDGE_LOOP('',(#516,#517,#518,#519));
#77=EDGE_LOOP('',(#520,#521,#522,#523));
#78=EDGE_LOOP('',(#524,#525,#526,#527));
#79=EDGE_LOOP('',(#528,#529,#530,#531));
#80=EDGE_LOOP('',(#532,#533,#534,#535));
#81=EDGE_LOOP('',(#536,#537,#538,#539));
#82=EDGE_LOOP('',(#540,#541,#542,#543,#544,#545));
#83=EDGE_LOOP('',(#546,#547,#548,#549,#550,#551,#552,#553,#554,#555,#556,
#557,#558,#559,#560,#561,#562,#563,#564,#565,#566,#567,#568));
#84=EDGE_LOOP('',(#569,#570,#571,#572));
#85=EDGE_LOOP('',(#573,#574,#575,#576));
#86=EDGE_LOOP('',(#577,#578,#579,#580));
#87=EDGE_LOOP('',(#581,#582,#583,#584));
#88=EDGE_LOOP('',(#585,#586,#587,#588));
#89=EDGE_LOOP('',(#589,#590,#591,#592,#593,#594));
#90=EDGE_LOOP('',(#595,#596,#597,#598));
#91=EDGE_LOOP('',(#599,#600));
#92=LINE('',#895,#181);
#93=LINE('',#897,#182);
#94=LINE('',#899,#183);
#95=LINE('',#900,#184);
#96=LINE('',#903,#185);
#97=LINE('',#905,#186);
#98=LINE('',#906,#187);
#99=LINE('',#910,#188);
#100=LINE('',#912,#189);
#101=LINE('',#914,#190);
#102=LINE('',#915,#191);
#103=LINE('',#918,#192);
#104=LINE('',#920,#193);
#105=LINE('',#921,#194);
#106=LINE('',#923,#195);
#107=LINE('',#924,#196);
#108=LINE('',#928,#197);
#109=LINE('',#930,#198);
#110=LINE('',#931,#199);
#111=LINE('',#933,#200);
#112=LINE('',#935,#201);
#113=LINE('',#936,#202);
#114=LINE('',#939,#203);
#115=LINE('',#941,#204);
#116=LINE('',#942,#205);
#117=LINE('',#945,#206);
#118=LINE('',#946,#207);
#119=LINE('',#948,#208);
#120=LINE('',#950,#209);
#121=LINE('',#951,#210);
#122=LINE('',#956,#211);
#123=LINE('',#958,#212);
#124=LINE('',#960,#213);
#125=LINE('',#961,#214);
#126=LINE('',#964,#215);
#127=LINE('',#966,#216);
#128=LINE('',#967,#217);
#129=LINE('',#970,#218);
#130=LINE('',#972,#219);
#131=LINE('',#973,#220);
#132=LINE('',#976,#221);
#133=LINE('',#978,#222);
#134=LINE('',#979,#223);
#135=LINE('',#982,#224);
#136=LINE('',#984,#225);
#137=LINE('',#985,#226);
#138=LINE('',#988,#227);
#139=LINE('',#990,#228);
#140=LINE('',#991,#229);
#141=LINE('',#994,#230);
#142=LINE('',#996,#231);
#143=LINE('',#997,#232);
#144=LINE('',#1000,#233);
#145=LINE('',#1002,#234);
#146=LINE('',#1003,#235);
#147=LINE('',#1005,#236);
#148=LINE('',#1006,#237);
#149=LINE('',#1008,#238);
#150=LINE('',#1009,#239);
#151=LINE('',#1015,#240);
#152=LINE('',#1017,#241);
#153=LINE('',#1019,#242);
#154=LINE('',#1020,#243);
#155=LINE('',#1023,#244);
#156=LINE('',#1025,#245);
#157=LINE('',#1026,#246);
#158=LINE('',#1029,#247);
#159=LINE('',#1031,#248);
#160=LINE('',#1032,#249);
#161=LINE('',#1035,#250);
#162=LINE('',#1036,#251);
#163=LINE('',#1037,#252);
#164=LINE('',#1039,#253);
#165=LINE('',#1040,#254);
#166=LINE('',#1046,#255);
#167=LINE('',#1048,#256);
#168=LINE('',#1050,#257);
#169=LINE('',#1052,#258);
#170=LINE('',#1053,#259);
#171=LINE('',#1055,#260);
#172=LINE('',#1057,#261);
#173=LINE('',#1058,#262);
#174=LINE('',#1061,#263);
#175=LINE('',#1062,#264);
#176=LINE('',#1065,#265);
#177=LINE('',#1066,#266);
#178=LINE('',#1069,#267);
#179=LINE('',#1070,#268);
#180=LINE('',#1072,#269);
#181=VECTOR('',#728,10.);
#182=VECTOR('',#729,10.);
#183=VECTOR('',#730,10.);
#184=VECTOR('',#731,10.);
#185=VECTOR('',#734,10.);
#186=VECTOR('',#735,10.);
#187=VECTOR('',#736,10.);
#188=VECTOR('',#739,10.);
#189=VECTOR('',#740,10.);
#190=VECTOR('',#741,10.);
#191=VECTOR('',#742,10.);
#192=VECTOR('',#745,10.);
#193=VECTOR('',#746,10.);
#194=VECTOR('',#747,10.);
#195=VECTOR('',#750,10.);
#196=VECTOR('',#751,10.);
#197=VECTOR('',#754,10.);
#198=VECTOR('',#755,10.);
#199=VECTOR('',#756,10.);
#200=VECTOR('',#757,10.);
#201=VECTOR('',#758,10.);
#202=VECTOR('',#759,10.);
#203=VECTOR('',#762,10.);
#204=VECTOR('',#763,10.);
#205=VECTOR('',#764,10.);
#206=VECTOR('',#767,10.);
#207=VECTOR('',#768,10.);
#208=VECTOR('',#769,10.);
#209=VECTOR('',#770,10.);
#210=VECTOR('',#771,10.);
#211=VECTOR('',#776,10.);
#212=VECTOR('',#777,10.);
#213=VECTOR('',#778,10.);
#214=VECTOR('',#779,10.);
#215=VECTOR('',#782,10.);
#216=VECTOR('',#783,10.);
#217=VECTOR('',#784,10.);
#218=VECTOR('',#787,10.);
#219=VECTOR('',#788,10.);
#220=VECTOR('',#789,10.);
#221=VECTOR('',#792,10.);
#222=VECTOR('',#793,10.);
#223=VECTOR('',#794,10.);
#224=VECTOR('',#797,10.);
#225=VECTOR('',#798,10.);
#226=VECTOR('',#799,10.);
#227=VECTOR('',#802,10.);
#228=VECTOR('',#803,10.);
#229=VECTOR('',#804,10.);
#230=VECTOR('',#807,10.);
#231=VECTOR('',#808,10.);
#232=VECTOR('',#809,10.);
#233=VECTOR('',#812,10.);
#234=VECTOR('',#813,10.);
#235=VECTOR('',#814,10.);
#236=VECTOR('',#817,10.);
#237=VECTOR('',#818,10.);
#238=VECTOR('',#821,10.);
#239=VECTOR('',#822,10.);
#240=VECTOR('',#829,10.);
#241=VECTOR('',#830,10.);
#242=VECTOR('',#831,10.);
#243=VECTOR('',#832,10.);
#244=VECTOR('',#835,10.);
#245=VECTOR('',#836,10.);
#246=VECTOR('',#837,10.);
#247=VECTOR('',#840,10.);
#248=VECTOR('',#841,10.);
#249=VECTOR('',#842,10.);
#250=VECTOR('',#845,10.);
#251=VECTOR('',#846,10.);
#252=VECTOR('',#847,10.);
#253=VECTOR('',#850,10.);
#254=VECTOR('',#851,10.);
#255=VECTOR('',#858,10.);
#256=VECTOR('',#859,10.);
#257=VECTOR('',#860,10.);
#258=VECTOR('',#861,10.);
#259=VECTOR('',#862,10.);
#260=VECTOR('',#865,10.);
#261=VECTOR('',#866,10.);
#262=VECTOR('',#867,10.);
#263=VECTOR('',#870,10.);
#264=VECTOR('',#871,10.);
#265=VECTOR('',#874,10.);
#266=VECTOR('',#875,10.);
#267=VECTOR('',#878,10.);
#268=VECTOR('',#879,10.);
#269=VECTOR('',#882,10.);
#270=VERTEX_POINT('',#893);
#271=VERTEX_POINT('',#894);
#272=VERTEX_POINT('',#896);
#273=VERTEX_POINT('',#898);
#274=VERTEX_POINT('',#902);
#275=VERTEX_POINT('',#904);
#276=VERTEX_POINT('',#908);
#277=VERTEX_POINT('',#909);
#278=VERTEX_POINT('',#911);
#279=VERTEX_POINT('',#913);
#280=VERTEX_POINT('',#917);
#281=VERTEX_POINT('',#919);
#282=VERTEX_POINT('',#926);
#283=VERTEX_POINT('',#927);
#284=VERTEX_POINT('',#929);
#285=VERTEX_POINT('',#932);
#286=VERTEX_POINT('',#934);
#287=VERTEX_POINT('',#938);
#288=VERTEX_POINT('',#940);
#289=VERTEX_POINT('',#944);
#290=VERTEX_POINT('',#947);
#291=VERTEX_POINT('',#949);
#292=VERTEX_POINT('',#954);
#293=VERTEX_POINT('',#955);
#294=VERTEX_POINT('',#957);
#295=VERTEX_POINT('',#959);
#296=VERTEX_POINT('',#963);
#297=VERTEX_POINT('',#965);
#298=VERTEX_POINT('',#969);
#299=VERTEX_POINT('',#971);
#300=VERTEX_POINT('',#975);
#301=VERTEX_POINT('',#977);
#302=VERTEX_POINT('',#981);
#303=VERTEX_POINT('',#983);
#304=VERTEX_POINT('',#987);
#305=VERTEX_POINT('',#989);
#306=VERTEX_POINT('',#993);
#307=VERTEX_POINT('',#995);
#308=VERTEX_POINT('',#999);
#309=VERTEX_POINT('',#1001);
#310=VERTEX_POINT('',#1013);
#311=VERTEX_POINT('',#1014);
#312=VERTEX_POINT('',#1016);
#313=VERTEX_POINT('',#1018);
#314=VERTEX_POINT('',#1022);
#315=VERTEX_POINT('',#1024);
#316=VERTEX_POINT('',#1028);
#317=VERTEX_POINT('',#1030);
#318=VERTEX_POINT('',#1034);
#319=VERTEX_POINT('',#1043);
#320=VERTEX_POINT('',#1045);
#321=VERTEX_POINT('',#1047);
#322=VERTEX_POINT('',#1049);
#323=VERTEX_POINT('',#1051);
#324=VERTEX_POINT('',#1056);
#325=VERTEX_POINT('',#1060);
#326=VERTEX_POINT('',#1064);
#327=VERTEX_POINT('',#1068);
#328=EDGE_CURVE('',#270,#271,#92,.T.);
#329=EDGE_CURVE('',#270,#272,#93,.T.);
#330=EDGE_CURVE('',#273,#272,#94,.T.);
#331=EDGE_CURVE('',#271,#273,#95,.T.);
#332=EDGE_CURVE('',#274,#270,#96,.T.);
#333=EDGE_CURVE('',#274,#275,#97,.T.);
#334=EDGE_CURVE('',#272,#275,#98,.T.);
#335=EDGE_CURVE('',#276,#277,#99,.T.);
#336=EDGE_CURVE('',#276,#278,#100,.T.);
#337=EDGE_CURVE('',#279,#278,#101,.T.);
#338=EDGE_CURVE('',#277,#279,#102,.T.);
#339=EDGE_CURVE('',#271,#280,#103,.T.);
#340=EDGE_CURVE('',#281,#273,#104,.T.);
#341=EDGE_CURVE('',#280,#281,#105,.T.);
#342=EDGE_CURVE('',#280,#274,#106,.T.);
#343=EDGE_CURVE('',#275,#281,#107,.T.);
#344=EDGE_CURVE('',#282,#283,#108,.T.);
#345=EDGE_CURVE('',#284,#282,#109,.T.);
#346=EDGE_CURVE('',#284,#277,#110,.T.);
#347=EDGE_CURVE('',#285,#279,#111,.T.);
#348=EDGE_CURVE('',#286,#285,#112,.T.);
#349=EDGE_CURVE('',#283,#286,#113,.T.);
#350=EDGE_CURVE('',#286,#287,#114,.T.);
#351=EDGE_CURVE('',#288,#285,#115,.T.);
#352=EDGE_CURVE('',#287,#288,#116,.T.);
#353=EDGE_CURVE('',#287,#289,#117,.T.);
#354=EDGE_CURVE('',#278,#288,#118,.T.);
#355=EDGE_CURVE('',#290,#276,#119,.T.);
#356=EDGE_CURVE('',#291,#290,#120,.T.);
#357=EDGE_CURVE('',#291,#289,#121,.T.);
#358=EDGE_CURVE('',#292,#293,#122,.T.);
#359=EDGE_CURVE('',#292,#294,#123,.T.);
#360=EDGE_CURVE('',#295,#294,#124,.T.);
#361=EDGE_CURVE('',#293,#295,#125,.T.);
#362=EDGE_CURVE('',#293,#296,#126,.T.);
#363=EDGE_CURVE('',#297,#295,#127,.T.);
#364=EDGE_CURVE('',#296,#297,#128,.T.);
#365=EDGE_CURVE('',#296,#298,#129,.T.);
#366=EDGE_CURVE('',#299,#297,#130,.T.);
#367=EDGE_CURVE('',#298,#299,#131,.T.);
#368=EDGE_CURVE('',#300,#298,#132,.T.);
#369=EDGE_CURVE('',#301,#299,#133,.T.);
#370=EDGE_CURVE('',#300,#301,#134,.T.);
#371=EDGE_CURVE('',#302,#300,#135,.T.);
#372=EDGE_CURVE('',#303,#301,#136,.T.);
#373=EDGE_CURVE('',#302,#303,#137,.T.);
#374=EDGE_CURVE('',#304,#302,#138,.T.);
#375=EDGE_CURVE('',#305,#303,#139,.T.);
#376=EDGE_CURVE('',#304,#305,#140,.T.);
#377=EDGE_CURVE('',#306,#304,#141,.T.);
#378=EDGE_CURVE('',#307,#305,#142,.T.);
#379=EDGE_CURVE('',#306,#307,#143,.T.);
#380=EDGE_CURVE('',#308,#306,#144,.T.);
#381=EDGE_CURVE('',#309,#307,#145,.T.);
#382=EDGE_CURVE('',#308,#309,#146,.T.);
#383=EDGE_CURVE('',#284,#308,#147,.T.);
#384=EDGE_CURVE('',#277,#309,#148,.T.);
#385=EDGE_CURVE('',#292,#290,#149,.T.);
#386=EDGE_CURVE('',#294,#276,#150,.T.);
#387=EDGE_CURVE('',#310,#311,#151,.T.);
#388=EDGE_CURVE('',#311,#312,#152,.T.);
#389=EDGE_CURVE('',#313,#312,#153,.T.);
#390=EDGE_CURVE('',#310,#313,#154,.T.);
#391=EDGE_CURVE('',#314,#310,#155,.T.);
#392=EDGE_CURVE('',#315,#313,#156,.T.);
#393=EDGE_CURVE('',#314,#315,#157,.T.);
#394=EDGE_CURVE('',#316,#314,#158,.T.);
#395=EDGE_CURVE('',#317,#315,#159,.T.);
#396=EDGE_CURVE('',#316,#317,#160,.T.);
#397=EDGE_CURVE('',#318,#316,#161,.T.);
#398=EDGE_CURVE('',#286,#317,#162,.T.);
#399=EDGE_CURVE('',#318,#286,#163,.T.);
#400=EDGE_CURVE('',#311,#282,#164,.T.);
#401=EDGE_CURVE('',#312,#283,#165,.T.);
#402=EDGE_CURVE('',#319,#318,#16,.T.);
#403=EDGE_CURVE('',#319,#320,#166,.T.);
#404=EDGE_CURVE('',#320,#321,#167,.T.);
#405=EDGE_CURVE('',#321,#322,#168,.T.);
#406=EDGE_CURVE('',#322,#323,#169,.T.);
#407=EDGE_CURVE('',#323,#291,#170,.T.);
#408=EDGE_CURVE('',#319,#287,#171,.T.);
#409=EDGE_CURVE('',#324,#287,#172,.T.);
#410=EDGE_CURVE('',#320,#324,#173,.T.);
#411=EDGE_CURVE('',#325,#324,#174,.T.);
#412=EDGE_CURVE('',#321,#325,#175,.T.);
#413=EDGE_CURVE('',#326,#325,#176,.T.);
#414=EDGE_CURVE('',#322,#326,#177,.T.);
#415=EDGE_CURVE('',#327,#326,#178,.T.);
#416=EDGE_CURVE('',#323,#327,#179,.T.);
#417=EDGE_CURVE('',#289,#327,#180,.T.);
#418=EDGE_CURVE('',#287,#286,#17,.T.);
#419=ORIENTED_EDGE('',*,*,#328,.F.);
#420=ORIENTED_EDGE('',*,*,#329,.T.);
#421=ORIENTED_EDGE('',*,*,#330,.F.);
#422=ORIENTED_EDGE('',*,*,#331,.F.);
#423=ORIENTED_EDGE('',*,*,#332,.F.);
#424=ORIENTED_EDGE('',*,*,#333,.T.);
#425=ORIENTED_EDGE('',*,*,#334,.F.);
#426=ORIENTED_EDGE('',*,*,#329,.F.);
#427=ORIENTED_EDGE('',*,*,#335,.F.);
#428=ORIENTED_EDGE('',*,*,#336,.T.);
#429=ORIENTED_EDGE('',*,*,#337,.F.);
#430=ORIENTED_EDGE('',*,*,#338,.F.);
#431=ORIENTED_EDGE('',*,*,#339,.F.);
#432=ORIENTED_EDGE('',*,*,#331,.T.);
#433=ORIENTED_EDGE('',*,*,#340,.F.);
#434=ORIENTED_EDGE('',*,*,#341,.F.);
#435=ORIENTED_EDGE('',*,*,#342,.F.);
#436=ORIENTED_EDGE('',*,*,#341,.T.);
#437=ORIENTED_EDGE('',*,*,#343,.F.);
#438=ORIENTED_EDGE('',*,*,#333,.F.);
#439=ORIENTED_EDGE('',*,*,#344,.F.);
#440=ORIENTED_EDGE('',*,*,#345,.F.);
#441=ORIENTED_EDGE('',*,*,#346,.T.);
#442=ORIENTED_EDGE('',*,*,#338,.T.);
#443=ORIENTED_EDGE('',*,*,#347,.F.);
#444=ORIENTED_EDGE('',*,*,#348,.F.);
#445=ORIENTED_EDGE('',*,*,#349,.F.);
#446=ORIENTED_EDGE('',*,*,#350,.F.);
#447=ORIENTED_EDGE('',*,*,#348,.T.);
#448=ORIENTED_EDGE('',*,*,#351,.F.);
#449=ORIENTED_EDGE('',*,*,#352,.F.);
#450=ORIENTED_EDGE('',*,*,#353,.F.);
#451=ORIENTED_EDGE('',*,*,#352,.T.);
#452=ORIENTED_EDGE('',*,*,#354,.F.);
#453=ORIENTED_EDGE('',*,*,#336,.F.);
#454=ORIENTED_EDGE('',*,*,#355,.F.);
#455=ORIENTED_EDGE('',*,*,#356,.F.);
#456=ORIENTED_EDGE('',*,*,#357,.T.);
#457=ORIENTED_EDGE('',*,*,#337,.T.);
#458=ORIENTED_EDGE('',*,*,#354,.T.);
#459=ORIENTED_EDGE('',*,*,#351,.T.);
#460=ORIENTED_EDGE('',*,*,#347,.T.);
#461=ORIENTED_EDGE('',*,*,#334,.T.);
#462=ORIENTED_EDGE('',*,*,#343,.T.);
#463=ORIENTED_EDGE('',*,*,#340,.T.);
#464=ORIENTED_EDGE('',*,*,#330,.T.);
#465=ORIENTED_EDGE('',*,*,#358,.F.);
#466=ORIENTED_EDGE('',*,*,#359,.T.);
#467=ORIENTED_EDGE('',*,*,#360,.F.);
#468=ORIENTED_EDGE('',*,*,#361,.F.);
#469=ORIENTED_EDGE('',*,*,#362,.F.);
#470=ORIENTED_EDGE('',*,*,#361,.T.);
#471=ORIENTED_EDGE('',*,*,#363,.F.);
#472=ORIENTED_EDGE('',*,*,#364,.F.);
#473=ORIENTED_EDGE('',*,*,#365,.F.);
#474=ORIENTED_EDGE('',*,*,#364,.T.);
#475=ORIENTED_EDGE('',*,*,#366,.F.);
#476=ORIENTED_EDGE('',*,*,#367,.F.);
#477=ORIENTED_EDGE('',*,*,#368,.T.);
#478=ORIENTED_EDGE('',*,*,#367,.T.);
#479=ORIENTED_EDGE('',*,*,#369,.F.);
#480=ORIENTED_EDGE('',*,*,#370,.F.);
#481=ORIENTED_EDGE('',*,*,#371,.T.);
#482=ORIENTED_EDGE('',*,*,#370,.T.);
#483=ORIENTED_EDGE('',*,*,#372,.F.);
#484=ORIENTED_EDGE('',*,*,#373,.F.);
#485=ORIENTED_EDGE('',*,*,#374,.T.);
#486=ORIENTED_EDGE('',*,*,#373,.T.);
#487=ORIENTED_EDGE('',*,*,#375,.F.);
#488=ORIENTED_EDGE('',*,*,#376,.F.);
#489=ORIENTED_EDGE('',*,*,#377,.T.);
#490=ORIENTED_EDGE('',*,*,#376,.T.);
#491=ORIENTED_EDGE('',*,*,#378,.F.);
#492=ORIENTED_EDGE('',*,*,#379,.F.);
#493=ORIENTED_EDGE('',*,*,#380,.T.);
#494=ORIENTED_EDGE('',*,*,#379,.T.);
#495=ORIENTED_EDGE('',*,*,#381,.F.);
#496=ORIENTED_EDGE('',*,*,#382,.F.);
#497=ORIENTED_EDGE('',*,*,#383,.T.);
#498=ORIENTED_EDGE('',*,*,#382,.T.);
#499=ORIENTED_EDGE('',*,*,#384,.F.);
#500=ORIENTED_EDGE('',*,*,#346,.F.);
#501=ORIENTED_EDGE('',*,*,#385,.T.);
#502=ORIENTED_EDGE('',*,*,#355,.T.);
#503=ORIENTED_EDGE('',*,*,#386,.F.);
#504=ORIENTED_EDGE('',*,*,#359,.F.);
#505=ORIENTED_EDGE('',*,*,#386,.T.);
#506=ORIENTED_EDGE('',*,*,#335,.T.);
#507=ORIENTED_EDGE('',*,*,#384,.T.);
#508=ORIENTED_EDGE('',*,*,#381,.T.);
#509=ORIENTED_EDGE('',*,*,#378,.T.);
#510=ORIENTED_EDGE('',*,*,#375,.T.);
#511=ORIENTED_EDGE('',*,*,#372,.T.);
#512=ORIENTED_EDGE('',*,*,#369,.T.);
#513=ORIENTED_EDGE('',*,*,#366,.T.);
#514=ORIENTED_EDGE('',*,*,#363,.T.);
#515=ORIENTED_EDGE('',*,*,#360,.T.);
#516=ORIENTED_EDGE('',*,*,#332,.T.);
#517=ORIENTED_EDGE('',*,*,#328,.T.);
#518=ORIENTED_EDGE('',*,*,#339,.T.);
#519=ORIENTED_EDGE('',*,*,#342,.T.);
#520=ORIENTED_EDGE('',*,*,#387,.T.);
#521=ORIENTED_EDGE('',*,*,#388,.T.);
#522=ORIENTED_EDGE('',*,*,#389,.F.);
#523=ORIENTED_EDGE('',*,*,#390,.F.);
#524=ORIENTED_EDGE('',*,*,#391,.T.);
#525=ORIENTED_EDGE('',*,*,#390,.T.);
#526=ORIENTED_EDGE('',*,*,#392,.F.);
#527=ORIENTED_EDGE('',*,*,#393,.F.);
#528=ORIENTED_EDGE('',*,*,#394,.T.);
#529=ORIENTED_EDGE('',*,*,#393,.T.);
#530=ORIENTED_EDGE('',*,*,#395,.F.);
#531=ORIENTED_EDGE('',*,*,#396,.F.);
#532=ORIENTED_EDGE('',*,*,#397,.T.);
#533=ORIENTED_EDGE('',*,*,#396,.T.);
#534=ORIENTED_EDGE('',*,*,#398,.F.);
#535=ORIENTED_EDGE('',*,*,#399,.F.);
#536=ORIENTED_EDGE('',*,*,#400,.T.);
#537=ORIENTED_EDGE('',*,*,#344,.T.);
#538=ORIENTED_EDGE('',*,*,#401,.F.);
#539=ORIENTED_EDGE('',*,*,#388,.F.);
#540=ORIENTED_EDGE('',*,*,#401,.T.);
#541=ORIENTED_EDGE('',*,*,#349,.T.);
#542=ORIENTED_EDGE('',*,*,#398,.T.);
#543=ORIENTED_EDGE('',*,*,#395,.T.);
#544=ORIENTED_EDGE('',*,*,#392,.T.);
#545=ORIENTED_EDGE('',*,*,#389,.T.);
#546=ORIENTED_EDGE('',*,*,#400,.F.);
#547=ORIENTED_EDGE('',*,*,#387,.F.);
#548=ORIENTED_EDGE('',*,*,#391,.F.);
#549=ORIENTED_EDGE('',*,*,#394,.F.);
#550=ORIENTED_EDGE('',*,*,#397,.F.);
#551=ORIENTED_EDGE('',*,*,#402,.F.);
#552=ORIENTED_EDGE('',*,*,#403,.T.);
#553=ORIENTED_EDGE('',*,*,#404,.T.);
#554=ORIENTED_EDGE('',*,*,#405,.T.);
#555=ORIENTED_EDGE('',*,*,#406,.T.);
#556=ORIENTED_EDGE('',*,*,#407,.T.);
#557=ORIENTED_EDGE('',*,*,#356,.T.);
#558=ORIENTED_EDGE('',*,*,#385,.F.);
#559=ORIENTED_EDGE('',*,*,#358,.T.);
#560=ORIENTED_EDGE('',*,*,#362,.T.);
#561=ORIENTED_EDGE('',*,*,#365,.T.);
#562=ORIENTED_EDGE('',*,*,#368,.F.);
#563=ORIENTED_EDGE('',*,*,#371,.F.);
#564=ORIENTED_EDGE('',*,*,#374,.F.);
#565=ORIENTED_EDGE('',*,*,#377,.F.);
#566=ORIENTED_EDGE('',*,*,#380,.F.);
#567=ORIENTED_EDGE('',*,*,#383,.F.);
#568=ORIENTED_EDGE('',*,*,#345,.T.);
#569=ORIENTED_EDGE('',*,*,#403,.F.);
#570=ORIENTED_EDGE('',*,*,#408,.T.);
#571=ORIENTED_EDGE('',*,*,#409,.F.);
#572=ORIENTED_EDGE('',*,*,#410,.F.);
#573=ORIENTED_EDGE('',*,*,#404,.F.);
#574=ORIENTED_EDGE('',*,*,#410,.T.);
#575=ORIENTED_EDGE('',*,*,#411,.F.);
#576=ORIENTED_EDGE('',*,*,#412,.F.);
#577=ORIENTED_EDGE('',*,*,#405,.F.);
#578=ORIENTED_EDGE('',*,*,#412,.T.);
#579=ORIENTED_EDGE('',*,*,#413,.F.);
#580=ORIENTED_EDGE('',*,*,#414,.F.);
#581=ORIENTED_EDGE('',*,*,#406,.F.);
#582=ORIENTED_EDGE('',*,*,#414,.T.);
#583=ORIENTED_EDGE('',*,*,#415,.F.);
#584=ORIENTED_EDGE('',*,*,#416,.F.);
#585=ORIENTED_EDGE('',*,*,#407,.F.);
#586=ORIENTED_EDGE('',*,*,#416,.T.);
#587=ORIENTED_EDGE('',*,*,#417,.F.);
#588=ORIENTED_EDGE('',*,*,#357,.F.);
#589=ORIENTED_EDGE('',*,*,#353,.T.);
#590=ORIENTED_EDGE('',*,*,#417,.T.);
#591=ORIENTED_EDGE('',*,*,#415,.T.);
#592=ORIENTED_EDGE('',*,*,#413,.T.);
#593=ORIENTED_EDGE('',*,*,#411,.T.);
#594=ORIENTED_EDGE('',*,*,#409,.T.);
#595=ORIENTED_EDGE('',*,*,#402,.T.);
#596=ORIENTED_EDGE('',*,*,#399,.T.);
#597=ORIENTED_EDGE('',*,*,#418,.F.);
#598=ORIENTED_EDGE('',*,*,#408,.F.);
#599=ORIENTED_EDGE('',*,*,#418,.T.);
#600=ORIENTED_EDGE('',*,*,#350,.T.);
#601=PLANE('',#686);
#602=PLANE('',#687);
#603=PLANE('',#688);
#604=PLANE('',#689);
#605=PLANE('',#690);
#606=PLANE('',#691);
#607=PLANE('',#692);
#608=PLANE('',#693);
#609=PLANE('',#694);
#610=PLANE('',#695);
#611=PLANE('',#696);
#612=PLANE('',#697);
#613=PLANE('',#698);
#614=PLANE('',#699);
#615=PLANE('',#700);
#616=PLANE('',#701);
#617=PLANE('',#702);
#618=PLANE('',#703);
#619=PLANE('',#704);
#620=PLANE('',#705);
#621=PLANE('',#706);
#622=PLANE('',#707);
#623=PLANE('',#708);
#624=PLANE('',#709);
#625=PLANE('',#710);
#626=PLANE('',#711);
#627=PLANE('',#712);
#628=PLANE('',#713);
#629=PLANE('',#715);
#630=PLANE('',#716);
#631=PLANE('',#717);
#632=PLANE('',#718);
#633=PLANE('',#719);
#634=PLANE('',#720);
#635=PLANE('',#723);
#636=ADVANCED_FACE('',(#19),#601,.T.);
#637=ADVANCED_FACE('',(#20),#602,.T.);
#638=ADVANCED_FACE('',(#21),#603,.T.);
#639=ADVANCED_FACE('',(#22),#604,.T.);
#640=ADVANCED_FACE('',(#23),#605,.T.);
#641=ADVANCED_FACE('',(#24),#606,.T.);
#642=ADVANCED_FACE('',(#25),#607,.T.);
#643=ADVANCED_FACE('',(#26),#608,.T.);
#644=ADVANCED_FACE('',(#27,#18),#609,.T.);
#645=ADVANCED_FACE('',(#28),#610,.T.);
#646=ADVANCED_FACE('',(#29),#611,.T.);
#647=ADVANCED_FACE('',(#30),#612,.T.);
#648=ADVANCED_FACE('',(#31),#613,.T.);
#649=ADVANCED_FACE('',(#32),#614,.T.);
#650=ADVANCED_FACE('',(#33),#615,.T.);
#651=ADVANCED_FACE('',(#34),#616,.T.);
#652=ADVANCED_FACE('',(#35),#617,.T.);
#653=ADVANCED_FACE('',(#36),#618,.T.);
#654=ADVANCED_FACE('',(#37),#619,.T.);
#655=ADVANCED_FACE('',(#38),#620,.T.);
#656=ADVANCED_FACE('',(#39),#621,.T.);
#657=ADVANCED_FACE('',(#40),#622,.T.);
#658=ADVANCED_FACE('',(#41),#623,.T.);
#659=ADVANCED_FACE('',(#42),#624,.T.);
#660=ADVANCED_FACE('',(#43),#625,.T.);
#661=ADVANCED_FACE('',(#44),#626,.T.);
#662=ADVANCED_FACE('',(#45),#627,.T.);
#663=ADVANCED_FACE('',(#46),#628,.F.);
#664=ADVANCED_FACE('',(#47),#629,.T.);
#665=ADVANCED_FACE('',(#48),#630,.T.);
#666=ADVANCED_FACE('',(#49),#631,.T.);
#667=ADVANCED_FACE('',(#50),#632,.T.);
#668=ADVANCED_FACE('',(#51),#633,.T.);
#669=ADVANCED_FACE('',(#52),#634,.T.);
#670=ADVANCED_FACE('',(#53),#15,.T.);
#671=ADVANCED_FACE('',(#54),#635,.T.);
#672=CLOSED_SHELL('',(#636,#637,#638,#639,#640,#641,#642,#643,#644,#645,
#646,#647,#648,#649,#650,#651,#652,#653,#654,#655,#656,#657,#658,#659,#660,
#661,#662,#663,#664,#665,#666,#667,#668,#669,#670,#671));
#673=DERIVED_UNIT_ELEMENT(#675,1.);
#674=DERIVED_UNIT_ELEMENT(#1082,-3.);
#675=(
MASS_UNIT()
NAMED_UNIT(*)
SI_UNIT(.KILO.,.GRAM.)
);
#676=DERIVED_UNIT((#673,#674));
#677=MEASURE_REPRESENTATION_ITEM('density measure',
POSITIVE_RATIO_MEASURE(7850.),#676);
#678=PROPERTY_DEFINITION_REPRESENTATION(#683,#680);
#679=PROPERTY_DEFINITION_REPRESENTATION(#684,#681);
#680=REPRESENTATION('material name',(#682),#1079);
#681=REPRESENTATION('density',(#677),#1079);
#682=DESCRIPTIVE_REPRESENTATION_ITEM('Steel','Steel');
#683=PROPERTY_DEFINITION('material property','material name',#1089);
#684=PROPERTY_DEFINITION('material property','density of part',#1089);
#685=AXIS2_PLACEMENT_3D('',#891,#724,#725);
#686=AXIS2_PLACEMENT_3D('',#892,#726,#727);
#687=AXIS2_PLACEMENT_3D('',#901,#732,#733);
#688=AXIS2_PLACEMENT_3D('',#907,#737,#738);
#689=AXIS2_PLACEMENT_3D('',#916,#743,#744);
#690=AXIS2_PLACEMENT_3D('',#922,#748,#749);
#691=AXIS2_PLACEMENT_3D('',#925,#752,#753);
#692=AXIS2_PLACEMENT_3D('',#937,#760,#761);
#693=AXIS2_PLACEMENT_3D('',#943,#765,#766);
#694=AXIS2_PLACEMENT_3D('',#952,#772,#773);
#695=AXIS2_PLACEMENT_3D('',#953,#774,#775);
#696=AXIS2_PLACEMENT_3D('',#962,#780,#781);
#697=AXIS2_PLACEMENT_3D('',#968,#785,#786);
#698=AXIS2_PLACEMENT_3D('',#974,#790,#791);
#699=AXIS2_PLACEMENT_3D('',#980,#795,#796);
#700=AXIS2_PLACEMENT_3D('',#986,#800,#801);
#701=AXIS2_PLACEMENT_3D('',#992,#805,#806);
#702=AXIS2_PLACEMENT_3D('',#998,#810,#811);
#703=AXIS2_PLACEMENT_3D('',#1004,#815,#816);
#704=AXIS2_PLACEMENT_3D('',#1007,#819,#820);
#705=AXIS2_PLACEMENT_3D('',#1010,#823,#824);
#706=AXIS2_PLACEMENT_3D('',#1011,#825,#826);
#707=AXIS2_PLACEMENT_3D('',#1012,#827,#828);
#708=AXIS2_PLACEMENT_3D('',#1021,#833,#834);
#709=AXIS2_PLACEMENT_3D('',#1027,#838,#839);
#710=AXIS2_PLACEMENT_3D('',#1033,#843,#844);
#711=AXIS2_PLACEMENT_3D('',#1038,#848,#849);
#712=AXIS2_PLACEMENT_3D('',#1041,#852,#853);
#713=AXIS2_PLACEMENT_3D('',#1042,#854,#855);
#714=AXIS2_PLACEMENT_3D('',#1044,#856,#857);
#715=AXIS2_PLACEMENT_3D('',#1054,#863,#864);
#716=AXIS2_PLACEMENT_3D('',#1059,#868,#869);
#717=AXIS2_PLACEMENT_3D('',#1063,#872,#873);
#718=AXIS2_PLACEMENT_3D('',#1067,#876,#877);
#719=AXIS2_PLACEMENT_3D('',#1071,#880,#881);
#720=AXIS2_PLACEMENT_3D('',#1073,#883,#884);
#721=AXIS2_PLACEMENT_3D('',#1074,#885,#886);
#722=AXIS2_PLACEMENT_3D('',#1075,#887,#888);
#723=AXIS2_PLACEMENT_3D('',#1076,#889,#890);
#724=DIRECTION('axis',(0.,0.,1.));
#725=DIRECTION('refdir',(1.,0.,0.));
#726=DIRECTION('center_axis',(1.,0.,0.));
#727=DIRECTION('ref_axis',(0.,0.,-1.));
#728=DIRECTION('',(0.,0.,1.));
#729=DIRECTION('',(0.,1.,0.));
#730=DIRECTION('',(0.,0.,-1.));
#731=DIRECTION('',(0.,1.,0.));
#732=DIRECTION('center_axis',(0.,0.,1.));
#733=DIRECTION('ref_axis',(1.,0.,0.));
#734=DIRECTION('',(-1.,0.,0.));
#735=DIRECTION('',(0.,1.,0.));
#736=DIRECTION('',(1.,0.,0.));
#737=DIRECTION('center_axis',(0.,0.,-1.));
#738=DIRECTION('ref_axis',(-1.,0.,0.));
#739=DIRECTION('',(1.,0.,0.));
#740=DIRECTION('',(0.,1.,0.));
#741=DIRECTION('',(-1.,0.,0.));
#742=DIRECTION('',(0.,1.,0.));
#743=DIRECTION('center_axis',(0.,0.,-1.));
#744=DIRECTION('ref_axis',(-1.,0.,0.));
#745=DIRECTION('',(1.,0.,0.));
#746=DIRECTION('',(-1.,0.,0.));
#747=DIRECTION('',(0.,1.,0.));
#748=DIRECTION('center_axis',(-1.,0.,0.));
#749=DIRECTION('ref_axis',(0.,0.,1.));
#750=DIRECTION('',(0.,0.,-1.));
#751=DIRECTION('',(0.,0.,1.));
#752=DIRECTION('center_axis',(1.,0.,0.));
#753=DIRECTION('ref_axis',(0.,0.,-1.));
#754=DIRECTION('',(0.,1.,0.));
#755=DIRECTION('',(0.,0.,1.));
#756=DIRECTION('',(0.,1.,0.));
#757=DIRECTION('',(0.,0.,-1.));
#758=DIRECTION('',(0.,1.,0.));
#759=DIRECTION('',(0.,0.,1.));
#760=DIRECTION('center_axis',(0.,0.,1.));
#761=DIRECTION('ref_axis',(1.,0.,0.));
#762=DIRECTION('',(-1.,0.,0.));
#763=DIRECTION('',(1.,0.,0.));
#764=DIRECTION('',(0.,1.,0.));
#765=DIRECTION('center_axis',(-1.,0.,0.));
#766=DIRECTION('ref_axis',(0.,0.,1.));
#767=DIRECTION('',(0.,0.,-1.));
#768=DIRECTION('',(0.,0.,1.));
#769=DIRECTION('',(0.,1.,0.));
#770=DIRECTION('',(0.,0.,-1.));
#771=DIRECTION('',(0.,1.,0.));
#772=DIRECTION('center_axis',(0.,1.,0.));
#773=DIRECTION('ref_axis',(0.,0.,1.));
#774=DIRECTION('center_axis',(-0.467071621692452,0.,0.884219486445296));
#775=DIRECTION('ref_axis',(0.884219486445296,0.,0.467071621692452));
#776=DIRECTION('',(-0.884219486445296,0.,-0.467071621692452));
#777=DIRECTION('',(0.,1.,0.));
#778=DIRECTION('',(0.884219486445296,0.,0.467071621692452));
#779=DIRECTION('',(0.,1.,0.));
#780=DIRECTION('center_axis',(-1.,0.,0.));
#781=DIRECTION('ref_axis',(0.,0.,1.));
#782=DIRECTION('',(0.,0.,-1.));
#783=DIRECTION('',(0.,0.,1.));
#784=DIRECTION('',(0.,1.,0.));
#785=DIRECTION('center_axis',(0.154600797119512,0.,-0.987977020749983));
#786=DIRECTION('ref_axis',(-0.987977020749983,0.,-0.154600797119512));
#787=DIRECTION('',(0.987977020749983,0.,0.154600797119512));
#788=DIRECTION('',(-0.987977020749983,0.,-0.154600797119512));
#789=DIRECTION('',(0.,1.,0.));
#790=DIRECTION('center_axis',(-0.902578735283356,0.,-0.430524826942996));
#791=DIRECTION('ref_axis',(-0.430524826942996,0.,0.902578735283356));
#792=DIRECTION('',(-0.430524826942996,0.,0.902578735283356));
#793=DIRECTION('',(-0.430524826942996,0.,0.902578735283356));
#794=DIRECTION('',(0.,1.,0.));
#795=DIRECTION('center_axis',(0.902578735283356,0.,-0.430524826942996));
#796=DIRECTION('ref_axis',(-0.430524826942996,0.,-0.902578735283356));
#797=DIRECTION('',(-0.430524826942996,0.,-0.902578735283356));
#798=DIRECTION('',(-0.430524826942996,0.,-0.902578735283356));
#799=DIRECTION('',(0.,1.,0.));
#800=DIRECTION('center_axis',(-0.154600797119512,0.,-0.987977020749983));
#801=DIRECTION('ref_axis',(-0.987977020749983,0.,0.154600797119512));
#802=DIRECTION('',(-0.987977020749983,0.,0.154600797119512));
#803=DIRECTION('',(-0.987977020749983,0.,0.154600797119512));
#804=DIRECTION('',(0.,1.,0.));
#805=DIRECTION('center_axis',(1.,0.,0.));
#806=DIRECTION('ref_axis',(0.,0.,-1.));
#807=DIRECTION('',(0.,0.,-1.));
#808=DIRECTION('',(0.,0.,-1.));
#809=DIRECTION('',(0.,1.,0.));
#810=DIRECTION('center_axis',(0.467071621692452,0.,0.884219486445296));
#811=DIRECTION('ref_axis',(0.884219486445296,0.,-0.467071621692452));
#812=DIRECTION('',(0.884219486445296,0.,-0.467071621692452));
#813=DIRECTION('',(0.884219486445296,0.,-0.467071621692452));
#814=DIRECTION('',(0.,1.,0.));
#815=DIRECTION('center_axis',(0.902578735283356,0.,-0.430524826942996));
#816=DIRECTION('ref_axis',(-0.430524826942996,0.,-0.902578735283356));
#817=DIRECTION('',(-0.430524826942996,0.,-0.902578735283356));
#818=DIRECTION('',(-0.430524826942996,0.,-0.902578735283356));
#819=DIRECTION('center_axis',(-0.902578735283356,0.,-0.430524826942996));
#820=DIRECTION('ref_axis',(-0.430524826942996,0.,0.902578735283356));
#821=DIRECTION('',(-0.430524826942996,0.,0.902578735283356));
#822=DIRECTION('',(-0.430524826942996,0.,0.902578735283356));
#823=DIRECTION('center_axis',(0.,1.,0.));
#824=DIRECTION('ref_axis',(0.,0.,1.));
#825=DIRECTION('center_axis',(0.,1.,0.));
#826=DIRECTION('ref_axis',(0.,0.,1.));
#827=DIRECTION('center_axis',(-0.0845069275987985,0.,-0.996422891742162));
#828=DIRECTION('ref_axis',(-0.996422891742162,0.,0.0845069275987985));
#829=DIRECTION('',(-0.996422891742162,0.,0.0845069275987985));
#830=DIRECTION('',(0.,1.,0.));
#831=DIRECTION('',(-0.996422891742162,0.,0.0845069275987985));
#832=DIRECTION('',(0.,1.,0.));
#833=DIRECTION('center_axis',(-0.332797299178539,0.,-0.94299838688063));
#834=DIRECTION('ref_axis',(-0.94299838688063,0.,0.332797299178539));
#835=DIRECTION('',(-0.94299838688063,0.,0.332797299178539));
#836=DIRECTION('',(-0.94299838688063,0.,0.332797299178539));
#837=DIRECTION('',(0.,1.,0.));
#838=DIRECTION('center_axis',(0.844819075554232,0.,0.53505208118434));
#839=DIRECTION('ref_axis',(0.53505208118434,0.,-0.844819075554232));
#840=DIRECTION('',(0.53505208118434,0.,-0.844819075554232));
#841=DIRECTION('',(0.53505208118434,0.,-0.844819075554232));
#842=DIRECTION('',(0.,1.,0.));
#843=DIRECTION('center_axis',(0.332797299178538,0.,0.94299838688063));
#844=DIRECTION('ref_axis',(0.94299838688063,0.,-0.332797299178538));
#845=DIRECTION('',(0.94299838688063,0.,-0.332797299178538));
#846=DIRECTION('',(0.94299838688063,0.,-0.332797299178538));
#847=DIRECTION('',(0.,1.,0.));
#848=DIRECTION('center_axis',(0.,0.,-1.));
#849=DIRECTION('ref_axis',(-1.,0.,0.));
#850=DIRECTION('',(-1.,0.,0.));
#851=DIRECTION('',(-1.,0.,0.));
#852=DIRECTION('center_axis',(0.,1.,0.));
#853=DIRECTION('ref_axis',(0.,0.,1.));
#854=DIRECTION('center_axis',(0.,1.,0.));
#855=DIRECTION('ref_axis',(1.,0.,0.));
#856=DIRECTION('center_axis',(0.,1.,0.));
#857=DIRECTION('ref_axis',(-1.,0.,0.));
#858=DIRECTION('',(-0.94299838688063,0.,-0.332797299178538));
#859=DIRECTION('',(-0.53505208118434,0.,-0.844819075554232));
#860=DIRECTION('',(0.94299838688063,0.,0.332797299178539));
#861=DIRECTION('',(0.996422891742162,0.,0.0845069275987985));
#862=DIRECTION('',(1.,0.,0.));
#863=DIRECTION('center_axis',(-0.332797299178538,0.,0.94299838688063));
#864=DIRECTION('ref_axis',(0.94299838688063,0.,0.332797299178538));
#865=DIRECTION('',(0.,1.,0.));
#866=DIRECTION('',(0.94299838688063,0.,0.332797299178538));
#867=DIRECTION('',(0.,1.,0.));
#868=DIRECTION('center_axis',(-0.844819075554232,0.,0.53505208118434));
#869=DIRECTION('ref_axis',(0.53505208118434,0.,0.844819075554232));
#870=DIRECTION('',(0.53505208118434,0.,0.844819075554232));
#871=DIRECTION('',(0.,1.,0.));
#872=DIRECTION('center_axis',(0.332797299178539,0.,-0.94299838688063));
#873=DIRECTION('ref_axis',(-0.94299838688063,0.,-0.332797299178539));
#874=DIRECTION('',(-0.94299838688063,0.,-0.332797299178539));
#875=DIRECTION('',(0.,1.,0.));
#876=DIRECTION('center_axis',(0.0845069275987985,0.,-0.996422891742162));
#877=DIRECTION('ref_axis',(-0.996422891742162,0.,-0.0845069275987985));
#878=DIRECTION('',(-0.996422891742162,0.,-0.0845069275987985));
#879=DIRECTION('',(0.,1.,0.));
#880=DIRECTION('center_axis',(0.,0.,-1.));
#881=DIRECTION('ref_axis',(-1.,0.,0.));
#882=DIRECTION('',(-1.,0.,0.));
#883=DIRECTION('center_axis',(0.,1.,0.));
#884=DIRECTION('ref_axis',(0.,0.,1.));
#885=DIRECTION('center_axis',(0.,1.,0.));
#886=DIRECTION('ref_axis',(-1.,0.,0.));
#887=DIRECTION('center_axis',(0.,1.,0.));
#888=DIRECTION('ref_axis',(-1.,0.,0.));
#889=DIRECTION('center_axis',(0.,1.,0.));
#890=DIRECTION('ref_axis',(1.,0.,0.));
#891=CARTESIAN_POINT('',(0.,0.,0.));
#892=CARTESIAN_POINT('Origin',(-2.,0.,100.));
#893=CARTESIAN_POINT('',(-2.,10.,45.));
#894=CARTESIAN_POINT('',(-2.,10.,100.));
#895=CARTESIAN_POINT('',(-2.,10.,100.));
#896=CARTESIAN_POINT('',(-2.,30.,45.));
#897=CARTESIAN_POINT('',(-2.,0.,45.));
#898=CARTESIAN_POINT('',(-2.,30.,100.));
#899=CARTESIAN_POINT('',(-2.,30.,100.));
#900=CARTESIAN_POINT('',(-2.,0.,100.));
#901=CARTESIAN_POINT('Origin',(-2.,0.,45.));
#902=CARTESIAN_POINT('',(50.,10.,45.));
#903=CARTESIAN_POINT('',(-2.,10.,45.));
#904=CARTESIAN_POINT('',(50.,30.,45.));
#905=CARTESIAN_POINT('',(50.,0.,45.));
#906=CARTESIAN_POINT('',(-2.,30.,45.));
#907=CARTESIAN_POINT('Origin',(60.,0.,35.));
#908=CARTESIAN_POINT('',(-12.,10.,35.));
#909=CARTESIAN_POINT('',(60.,10.,35.));
#910=CARTESIAN_POINT('',(-12.,10.,35.));
#911=CARTESIAN_POINT('',(-12.,30.,35.));
#912=CARTESIAN_POINT('',(-12.,0.,35.));
#913=CARTESIAN_POINT('',(60.,30.,35.));
#914=CARTESIAN_POINT('',(-12.,30.,35.));
#915=CARTESIAN_POINT('',(60.,0.,35.));
#916=CARTESIAN_POINT('Origin',(50.,0.,100.));
#917=CARTESIAN_POINT('',(50.,10.,100.));
#918=CARTESIAN_POINT('',(50.,10.,100.));
#919=CARTESIAN_POINT('',(50.,30.,100.));
#920=CARTESIAN_POINT('',(50.,30.,100.));
#921=CARTESIAN_POINT('',(50.,0.,100.));
#922=CARTESIAN_POINT('Origin',(50.,0.,45.));
#923=CARTESIAN_POINT('',(50.,10.,45.));
#924=CARTESIAN_POINT('',(50.,30.,45.));
#925=CARTESIAN_POINT('Origin',(60.,0.,110.));
#926=CARTESIAN_POINT('',(60.,0.,78.8578913275188));
#927=CARTESIAN_POINT('',(60.,10.,78.8578913275188));
#928=CARTESIAN_POINT('',(60.,0.,78.8578913275188));
#929=CARTESIAN_POINT('',(60.,0.,35.));
#930=CARTESIAN_POINT('',(60.,0.,35.));
#931=CARTESIAN_POINT('',(60.,0.,35.));
#932=CARTESIAN_POINT('',(60.,30.,110.));
#933=CARTESIAN_POINT('',(60.,30.,35.));
#934=CARTESIAN_POINT('',(60.,10.,110.));
#935=CARTESIAN_POINT('',(60.,0.,110.));
#936=CARTESIAN_POINT('',(60.,10.,35.));
#937=CARTESIAN_POINT('Origin',(-12.,0.,110.));
#938=CARTESIAN_POINT('',(-12.,10.,110.));
#939=CARTESIAN_POINT('',(60.,10.,110.));
#940=CARTESIAN_POINT('',(-12.,30.,110.));
#941=CARTESIAN_POINT('',(60.,30.,110.));
#942=CARTESIAN_POINT('',(-12.,0.,110.));
#943=CARTESIAN_POINT('Origin',(-12.,0.,35.));
#944=CARTESIAN_POINT('',(-12.,10.,78.8578913275188));
#945=CARTESIAN_POINT('',(-12.,10.,110.));
#946=CARTESIAN_POINT('',(-12.,30.,110.));
#947=CARTESIAN_POINT('',(-12.,0.,35.));
#948=CARTESIAN_POINT('',(-12.,0.,35.));
#949=CARTESIAN_POINT('',(-12.,0.,78.8578913275188));
#950=CARTESIAN_POINT('',(-12.,0.,110.));
#951=CARTESIAN_POINT('',(-12.,0.,78.8578913275188));
#952=CARTESIAN_POINT('Origin',(24.,30.,72.5));
#953=CARTESIAN_POINT('Origin',(-32.4651462778195,0.,-34.2469309780107));
#954=CARTESIAN_POINT('',(10.2641817866331,0.,-11.6760005033549));
#955=CARTESIAN_POINT('',(-32.4651462778195,0.,-34.2469309780107));
#956=CARTESIAN_POINT('',(10.2641817866331,0.,-11.6760005033549));
#957=CARTESIAN_POINT('',(10.2641817866331,10.,-11.6760005033549));
#958=CARTESIAN_POINT('',(10.2641817866331,0.,-11.6760005033549));
#959=CARTESIAN_POINT('',(-32.4651462778195,10.,-34.2469309780107));
#960=CARTESIAN_POINT('',(10.2641817866331,10.,-11.6760005033549));
#961=CARTESIAN_POINT('',(-32.4651462778195,0.,-34.2469309780107));
#962=CARTESIAN_POINT('Origin',(-32.4651462778195,0.,-44.8281728939475));
#963=CARTESIAN_POINT('',(-32.4651462778195,0.,-44.8281728939475));
#964=CARTESIAN_POINT('',(-32.4651462778195,0.,-34.2469309780107));
#965=CARTESIAN_POINT('',(-32.4651462778195,10.,-44.8281728939475));
#966=CARTESIAN_POINT('',(-32.4651462778195,10.,-34.2469309780107));
#967=CARTESIAN_POINT('',(-32.4651462778195,0.,-44.8281728939475));
#968=CARTESIAN_POINT('Origin',(22.0113878857819,0.,-36.3035661175593));
#969=CARTESIAN_POINT('',(22.0113878857819,0.,-36.3035661175593));
#970=CARTESIAN_POINT('',(-32.4651462778195,0.,-44.8281728939475));
#971=CARTESIAN_POINT('',(22.0113878857819,10.,-36.3035661175593));
#972=CARTESIAN_POINT('',(-32.4651462778195,10.,-44.8281728939475));
#973=CARTESIAN_POINT('',(22.0113878857819,0.,-36.3035661175593));
#974=CARTESIAN_POINT('Origin',(24.,0.,-40.4726149033515));
#975=CARTESIAN_POINT('',(24.,0.,-40.4726149033515));
#976=CARTESIAN_POINT('',(24.,0.,-40.4726149033515));
#977=CARTESIAN_POINT('',(24.,10.,-40.4726149033515));
#978=CARTESIAN_POINT('',(24.,10.,-40.4726149033515));
#979=CARTESIAN_POINT('',(24.,0.,-40.4726149033515));
#980=CARTESIAN_POINT('Origin',(25.988612114218,0.,-36.3035661175594));
#981=CARTESIAN_POINT('',(25.9886121142181,0.,-36.3035661175593));
#982=CARTESIAN_POINT('',(60.,0.,35.));
#983=CARTESIAN_POINT('',(25.9886121142181,10.,-36.3035661175593));
#984=CARTESIAN_POINT('',(60.,10.,35.));
#985=CARTESIAN_POINT('',(25.9886121142181,0.,-36.3035661175593));
#986=CARTESIAN_POINT('Origin',(80.4651462778195,0.,-44.8281728939475));
#987=CARTESIAN_POINT('',(80.4651462778195,0.,-44.8281728939475));
#988=CARTESIAN_POINT('',(80.4651462778195,0.,-44.8281728939475));
#989=CARTESIAN_POINT('',(80.4651462778195,10.,-44.8281728939475));
#990=CARTESIAN_POINT('',(80.4651462778195,10.,-44.8281728939475));
#991=CARTESIAN_POINT('',(80.4651462778195,0.,-44.8281728939475));
#992=CARTESIAN_POINT('Origin',(80.4651462778195,0.,-34.2469309780107));
#993=CARTESIAN_POINT('',(80.4651462778195,0.,-34.2469309780107));
#994=CARTESIAN_POINT('',(80.4651462778195,0.,-34.2469309780107));
#995=CARTESIAN_POINT('',(80.4651462778195,10.,-34.2469309780107));
#996=CARTESIAN_POINT('',(80.4651462778195,10.,-34.2469309780107));
#997=CARTESIAN_POINT('',(80.4651462778195,0.,-34.2469309780107));
#998=CARTESIAN_POINT('Origin',(37.7358182133669,0.,-11.6760005033549));
#999=CARTESIAN_POINT('',(37.7358182133669,0.,-11.6760005033549));
#1000=CARTESIAN_POINT('',(37.7358182133669,0.,-11.6760005033549));
#1001=CARTESIAN_POINT('',(37.7358182133669,10.,-11.6760005033549));
#1002=CARTESIAN_POINT('',(37.7358182133669,10.,-11.6760005033549));
#1003=CARTESIAN_POINT('',(37.7358182133669,0.,-11.6760005033549));
#1004=CARTESIAN_POINT('Origin',(60.,0.,35.));
#1005=CARTESIAN_POINT('',(60.,0.,35.));
#1006=CARTESIAN_POINT('',(60.,10.,35.));
#1007=CARTESIAN_POINT('Origin',(10.2641817866331,0.,-11.6760005033548));
#1008=CARTESIAN_POINT('',(24.,0.,-40.4726149033515));
#1009=CARTESIAN_POINT('',(24.,10.,-40.4726149033515));
#1010=CARTESIAN_POINT('Origin',(24.,10.,-4.91408644697377));
#1011=CARTESIAN_POINT('Origin',(24.,10.,72.5));
#1012=CARTESIAN_POINT('Origin',(142.421380493781,0.,73.5425245720506));
#1013=CARTESIAN_POINT('',(142.421380493781,0.,73.5425245720506));
#1014=CARTESIAN_POINT('',(79.7477836225457,0.,78.8578913275188));
#1015=CARTESIAN_POINT('',(142.421380493781,0.,73.5425245720506));
#1016=CARTESIAN_POINT('',(79.7477836225457,10.,78.8578913275188));
#1017=CARTESIAN_POINT('',(79.7477836225457,0.,78.8578913275188));
#1018=CARTESIAN_POINT('',(142.421380493781,10.,73.5425245720506));
#1019=CARTESIAN_POINT('',(142.421380493781,10.,73.5425245720506));
#1020=CARTESIAN_POINT('',(142.421380493781,0.,73.5425245720506));
#1021=CARTESIAN_POINT('Origin',(154.25388622091,0.,69.3666680665806));
#1022=CARTESIAN_POINT('',(154.25388622091,0.,69.3666680665806));
#1023=CARTESIAN_POINT('',(154.25388622091,0.,69.3666680665806));
#1024=CARTESIAN_POINT('',(154.25388622091,10.,69.3666680665806));
#1025=CARTESIAN_POINT('',(154.25388622091,10.,69.3666680665806));
#1026=CARTESIAN_POINT('',(154.25388622091,0.,69.3666680665806));
#1027=CARTESIAN_POINT('Origin',(148.242778155649,0.,78.8578913275188));
#1028=CARTESIAN_POINT('',(148.242778155649,0.,78.8578913275188));
#1029=CARTESIAN_POINT('',(148.242778155649,0.,78.8578913275188));
#1030=CARTESIAN_POINT('',(148.242778155649,10.,78.8578913275188));
#1031=CARTESIAN_POINT('',(148.242778155649,10.,78.8578913275188));
#1032=CARTESIAN_POINT('',(148.242778155649,0.,78.8578913275188));
#1033=CARTESIAN_POINT('Origin',(60.,0.,110.));
#1034=CARTESIAN_POINT('',(60.,0.,110.));
#1035=CARTESIAN_POINT('',(60.,0.,110.));
#1036=CARTESIAN_POINT('',(60.,10.,110.));
#1037=CARTESIAN_POINT('',(60.,0.,110.));
#1038=CARTESIAN_POINT('Origin',(79.7477836225457,0.,78.8578913275188));
#1039=CARTESIAN_POINT('',(79.7477836225457,0.,78.8578913275188));
#1040=CARTESIAN_POINT('',(79.7477836225457,10.,78.8578913275188));
#1041=CARTESIAN_POINT('Origin',(107.126943110455,10.,89.6833340332903));
#1042=CARTESIAN_POINT('Origin',(107.126943110455,0.,89.6833340332903));
#1043=CARTESIAN_POINT('',(-12.,0.,110.));
#1044=CARTESIAN_POINT('Origin',(24.,0.,110.));
#1045=CARTESIAN_POINT('',(-100.242778155649,0.,78.8578913275188));
#1046=CARTESIAN_POINT('',(-12.,0.,110.));
#1047=CARTESIAN_POINT('',(-106.25388622091,0.,69.3666680665806));
#1048=CARTESIAN_POINT('',(-100.242778155649,0.,78.8578913275188));
#1049=CARTESIAN_POINT('',(-94.4213804937811,0.,73.5425245720506));
#1050=CARTESIAN_POINT('',(-106.25388622091,0.,69.3666680665806));
#1051=CARTESIAN_POINT('',(-31.7477836225457,0.,78.8578913275188));
#1052=CARTESIAN_POINT('',(-94.4213804937811,0.,73.5425245720506));
#1053=CARTESIAN_POINT('',(-31.7477836225457,0.,78.8578913275188));
#1054=CARTESIAN_POINT('Origin',(-100.242778155649,0.,78.8578913275188));
#1055=CARTESIAN_POINT('',(-12.,0.,110.));
#1056=CARTESIAN_POINT('',(-100.242778155649,10.,78.8578913275188));
#1057=CARTESIAN_POINT('',(-12.,10.,110.));
#1058=CARTESIAN_POINT('',(-100.242778155649,0.,78.8578913275188));
#1059=CARTESIAN_POINT('Origin',(-106.25388622091,0.,69.3666680665806));
#1060=CARTESIAN_POINT('',(-106.25388622091,10.,69.3666680665806));
#1061=CARTESIAN_POINT('',(-100.242778155649,10.,78.8578913275188));
#1062=CARTESIAN_POINT('',(-106.25388622091,0.,69.3666680665806));
#1063=CARTESIAN_POINT('Origin',(-94.4213804937811,0.,73.5425245720506));
#1064=CARTESIAN_POINT('',(-94.4213804937811,10.,73.5425245720506));
#1065=CARTESIAN_POINT('',(-106.25388622091,10.,69.3666680665806));
#1066=CARTESIAN_POINT('',(-94.4213804937811,0.,73.5425245720506));
#1067=CARTESIAN_POINT('Origin',(-31.7477836225457,0.,78.8578913275188));
#1068=CARTESIAN_POINT('',(-31.7477836225457,10.,78.8578913275188));
#1069=CARTESIAN_POINT('',(-94.4213804937811,10.,73.5425245720506));
#1070=CARTESIAN_POINT('',(-31.7477836225457,0.,78.8578913275188));
#1071=CARTESIAN_POINT('Origin',(-12.,0.,78.8578913275188));
#1072=CARTESIAN_POINT('',(-31.7477836225457,10.,78.8578913275188));
#1073=CARTESIAN_POINT('Origin',(-59.1269431104551,10.,89.6833340332903));
#1074=CARTESIAN_POINT('Origin',(24.,0.,110.));
#1075=CARTESIAN_POINT('Origin',(24.,10.,110.));
#1076=CARTESIAN_POINT('Origin',(24.,10.,128.));
#1077=UNCERTAINTY_MEASURE_WITH_UNIT(LENGTH_MEASURE(0.01),#1081,
'DISTANCE_ACCURACY_VALUE',
'Maximum model space distance between geometric entities at asserted c
onnectivities');
#1078=UNCERTAINTY_MEASURE_WITH_UNIT(LENGTH_MEASURE(0.01),#1081,
'DISTANCE_ACCURACY_VALUE',
'Maximum model space distance between geometric entities at asserted c
onnectivities');
#1079=(
GEOMETRIC_REPRESENTATION_CONTEXT(3)
GLOBAL_UNCERTAINTY_ASSIGNED_CONTEXT((#1077))
GLOBAL_UNIT_ASSIGNED_CONTEXT((#1081,#1083,#1084))
REPRESENTATION_CONTEXT('','3D')
);
#1080=(
GEOMETRIC_REPRESENTATION_CONTEXT(3)
GLOBAL_UNCERTAINTY_ASSIGNED_CONTEXT((#1078))
GLOBAL_UNIT_ASSIGNED_CONTEXT((#1081,#1083,#1084))
REPRESENTATION_CONTEXT('','3D')
);
#1081=(
LENGTH_UNIT()
NAMED_UNIT(*)
SI_UNIT(.MILLI.,.METRE.)
);
#1082=(
LENGTH_UNIT()
NAMED_UNIT(*)
SI_UNIT($,.METRE.)
);
#1083=(
NAMED_UNIT(*)
PLANE_ANGLE_UNIT()
SI_UNIT($,.RADIAN.)
);
#1084=(
NAMED_UNIT(*)
SI_UNIT($,.STERADIAN.)
SOLID_ANGLE_UNIT()
);
#1085=SHAPE_DEFINITION_REPRESENTATION(#1086,#1087);
#1086=PRODUCT_DEFINITION_SHAPE('',$,#1089);
#1087=SHAPE_REPRESENTATION('',(#685),#1079);
#1088=PRODUCT_DEFINITION_CONTEXT('part definition',#1093,'design');
#1089=PRODUCT_DEFINITION('2026-01-07-17-59-41-809',
'Simple flight controller case',#1090,#1088);
#1090=PRODUCT_DEFINITION_FORMATION('',$,#1095);
#1091=PRODUCT_RELATED_PRODUCT_CATEGORY('Simple flight controller case',
'Simple flight controller case',(#1095));
#1092=APPLICATION_PROTOCOL_DEFINITION('international standard',
'automotive_design',2009,#1093);
#1093=APPLICATION_CONTEXT(
'Core Data for Automotive Mechanical Design Process');
#1094=PRODUCT_CONTEXT('part definition',#1093,'mechanical');
#1095=PRODUCT('2026-01-07-17-59-41-809','Simple flight controller case',
$,(#1094));
#1096=PRESENTATION_STYLE_ASSIGNMENT((#1097));
#1097=SURFACE_STYLE_USAGE(.BOTH.,#1098);
#1098=SURFACE_SIDE_STYLE('',(#1099));
#1099=SURFACE_STYLE_FILL_AREA(#1100);
#1100=FILL_AREA_STYLE('Steel - Satin',(#1101));
#1101=FILL_AREA_STYLE_COLOUR('Steel - Satin',#1102);
#1102=COLOUR_RGB('Steel - Satin',0.627450980392157,0.627450980392157,0.627450980392157);
ENDSEC;
END-ISO-10303-21;
